<svg width="40" height="25" viewBox="0 0 40 25" fill="none" xmlns="http://www.w3.org/2000/svg">
<g clip-path="url(#clip0_1178_128)">
<path d="M12.5312 21.8917V20.5644C12.5312 20.0567 12.231 19.7242 11.7156 19.7242C11.4579 19.7242 11.1776 19.8118 10.985 20.1005C10.8349 19.8582 10.6197 19.7242 10.2969 19.7242C10.0818 19.7242 9.86659 19.7912 9.69645 20.0335V19.768H9.24609V21.8917H9.69645V20.7191C9.69645 20.3428 9.88911 20.1649 10.1893 20.1649C10.4896 20.1649 10.6397 20.3634 10.6397 20.7191V21.8917H11.0901V20.7191C11.0901 20.3428 11.3052 20.1649 11.583 20.1649C11.8832 20.1649 12.0333 20.3634 12.0333 20.7191V21.8917H12.5312ZM19.2116 19.768H18.481V19.1263H18.0306V19.768H17.6228V20.1881H18.0306V21.1624C18.0306 21.6495 18.2233 21.9356 18.7387 21.9356C18.9313 21.9356 19.1465 21.8685 19.2966 21.7809L19.1665 21.3814C19.0364 21.4691 18.8863 21.4923 18.7787 21.4923C18.5635 21.4923 18.4785 21.3582 18.4785 21.1392V20.1881H19.2091V19.768H19.2116ZM23.0346 19.7216C22.7769 19.7216 22.6043 19.8557 22.4967 20.0309V19.7655H22.0463V21.8892H22.4967V20.6933C22.4967 20.3402 22.6468 20.1392 22.927 20.1392C23.0121 20.1392 23.1197 20.1624 23.2073 20.183L23.3374 19.7397C23.2473 19.7216 23.1197 19.7216 23.0346 19.7216ZM17.2575 19.9433C17.0423 19.7887 16.7421 19.7216 16.4193 19.7216C15.9039 19.7216 15.5611 19.9871 15.5611 20.4072C15.5611 20.7603 15.8189 20.9613 16.2692 21.0258L16.4844 21.049C16.7196 21.0928 16.8497 21.1598 16.8497 21.2706C16.8497 21.4252 16.677 21.5361 16.3768 21.5361C16.0766 21.5361 15.8389 21.4252 15.6887 21.3144L15.4736 21.6675C15.7088 21.8454 16.0315 21.933 16.3543 21.933C16.9548 21.933 17.3 21.6443 17.3 21.2474C17.3 20.8711 17.0198 20.6727 16.592 20.6057L16.3768 20.5825C16.1841 20.5593 16.034 20.5155 16.034 20.384C16.034 20.2294 16.1841 20.1417 16.4218 20.1417C16.6795 20.1417 16.9372 20.2526 17.0674 20.3196L17.2575 19.9433ZM29.2396 19.7216C28.9819 19.7216 28.8092 19.8557 28.7017 20.0309V19.7655H28.2513V21.8892H28.7017V20.6933C28.7017 20.3402 28.8518 20.1392 29.132 20.1392C29.2171 20.1392 29.3247 20.1624 29.4122 20.183L29.5423 19.7448C29.4548 19.7216 29.3272 19.7216 29.2396 19.7216ZM23.485 20.8299C23.485 21.4716 23.9153 21.9356 24.5809 21.9356C24.8811 21.9356 25.0963 21.8685 25.3114 21.6933L25.0963 21.317C24.9236 21.451 24.7535 21.5155 24.5583 21.5155C24.1931 21.5155 23.9353 21.25 23.9353 20.8299C23.9353 20.4304 24.1931 20.1649 24.5583 20.1443C24.751 20.1443 24.9236 20.2113 25.0963 20.3428L25.3114 19.9665C25.0963 19.7887 24.8811 19.7242 24.5809 19.7242C23.9153 19.7216 23.485 20.1881 23.485 20.8299ZM27.6508 20.8299V19.768H27.2005V20.0335C27.0503 19.835 26.8352 19.7242 26.5549 19.7242C25.9745 19.7242 25.5241 20.1881 25.5241 20.8299C25.5241 21.4716 25.9745 21.9356 26.5549 21.9356C26.8552 21.9356 27.0704 21.8247 27.2005 21.6263V21.8917H27.6508V20.8299ZM25.997 20.8299C25.997 20.4536 26.2322 20.1443 26.62 20.1443C26.9853 20.1443 27.243 20.433 27.243 20.8299C27.243 21.2062 26.9853 21.5155 26.62 21.5155C26.2347 21.4923 25.997 21.2036 25.997 20.8299ZM20.6077 19.7216C20.0072 19.7216 19.5769 20.1649 19.5769 20.8273C19.5769 21.4923 20.0072 21.933 20.6302 21.933C20.9304 21.933 21.2307 21.8454 21.4684 21.6443L21.2532 21.3118C21.0806 21.4459 20.8654 21.5335 20.6527 21.5335C20.3725 21.5335 20.0948 21.3995 20.0297 21.0258H21.5534C21.5534 20.9588 21.5534 20.9149 21.5534 20.8479C21.5735 20.1649 21.1856 19.7216 20.6077 19.7216ZM20.6077 20.1211C20.8879 20.1211 21.0806 20.299 21.1231 20.6289H20.0497C20.0923 20.3428 20.2849 20.1211 20.6077 20.1211ZM31.7966 20.8299V18.9278H31.3463V20.0335C31.1962 19.835 30.981 19.7242 30.7008 19.7242C30.1203 19.7242 29.6699 20.1881 29.6699 20.8299C29.6699 21.4716 30.1203 21.9356 30.7008 21.9356C31.001 21.9356 31.2162 21.8247 31.3463 21.6263V21.8917H31.7966V20.8299ZM30.1428 20.8299C30.1428 20.4536 30.378 20.1443 30.7658 20.1443C31.1311 20.1443 31.3888 20.433 31.3888 20.8299C31.3888 21.2062 31.1311 21.5155 30.7658 21.5155C30.378 21.4923 30.1428 21.2036 30.1428 20.8299ZM15.0657 20.8299V19.768H14.6154V20.0335C14.4653 19.835 14.2501 19.7242 13.9699 19.7242C13.3894 19.7242 12.939 20.1881 12.939 20.8299C12.939 21.4716 13.3894 21.9356 13.9699 21.9356C14.2701 21.9356 14.4853 21.8247 14.6154 21.6263V21.8917H15.0657V20.8299ZM13.3919 20.8299C13.3919 20.4536 13.6271 20.1443 14.0149 20.1443C14.3802 20.1443 14.6379 20.433 14.6379 20.8299C14.6379 21.2062 14.3802 21.5155 14.0149 21.5155C13.6271 21.4923 13.3919 21.2036 13.3919 20.8299Z" fill="black"/>
<path d="M23.8728 3.70361H17.1074V16.2242H23.8728V3.70361Z" fill="#FF5A00"/>
<path d="M17.5576 9.96392C17.5576 7.4201 18.7186 5.16237 20.5 3.70361C19.189 2.64175 17.5351 2 15.7312 2C11.4578 2 8 5.56186 8 9.96392C8 14.366 11.4578 17.9278 15.7312 17.9278C17.5351 17.9278 19.189 17.2861 20.5 16.2242C18.7161 14.7861 17.5576 12.5077 17.5576 9.96392Z" fill="#EB001B"/>
<path d="M33 9.96392C33 14.366 29.5422 17.9278 25.2688 17.9278C23.4649 17.9278 21.811 17.2861 20.5 16.2242C22.3039 14.7629 23.4424 12.5077 23.4424 9.96392C23.4424 7.4201 22.2814 5.16237 20.5 3.70361C21.8085 2.64175 23.4624 2 25.2663 2C29.5422 2 33 5.58505 33 9.96392Z" fill="#F79E1B"/>
</g>
<defs>
<clipPath id="clip0_1178_128">
<rect width="25" height="20" fill="white" transform="translate(8 2)"/>
</clipPath>
</defs>
</svg>
