<svg width="40" height="25" viewBox="0 0 40 25" fill="none" xmlns="http://www.w3.org/2000/svg">
<path d="M31.899 4H8.50317C7.67299 4 7 4.67299 7 5.50317V19.5015C7 20.3317 7.67299 21.0047 8.50317 21.0047H31.899C32.7291 21.0047 33.4021 20.3317 33.4021 19.5015V5.50317C33.4021 4.67299 32.7291 4 31.899 4Z" stroke="black" stroke-width="0.8" stroke-linecap="round" stroke-linejoin="round"/>
<path d="M13.8294 12.6586L11.5523 9.54447C11.4655 9.42561 11.3816 9.30473 11.3005 9.18194C11.2346 9.08249 11.1715 8.98124 11.1113 8.8783H11.0933C11.1025 9.03701 11.1092 9.20408 11.1138 9.37783C11.1179 9.552 11.1204 9.74244 11.1204 9.94919V12.6586H9.32031V6.20526H11.1564L13.3391 9.16649C13.3658 9.20533 13.3988 9.2517 13.438 9.30599C13.5165 9.41504 13.5923 9.52603 13.6653 9.63887C13.6999 9.69317 13.7258 9.74078 13.7442 9.78296H13.7622C13.7466 9.6658 13.7382 9.5478 13.7371 9.42962C13.7357 9.31936 13.735 9.2091 13.735 9.09883V6.20526H15.5351V12.6582L13.8294 12.6586ZM16.8086 12.6586V6.20526H20.8273V7.72597H18.7528V8.66655H20.7016V10.1877H18.7528V11.1374H20.976V12.6586H16.8086ZM25.166 7.72597V12.6586H23.2126V7.72597H21.4083V6.20526H26.9929V7.72597H25.166Z" fill="#265697"/>
<path d="M12.5083 17.1484C12.5083 17.3234 12.4782 17.4863 12.4172 17.6363C12.3558 17.7876 12.2583 17.9217 12.1332 18.0268C12.0046 18.137 11.8396 18.2231 11.6378 18.2857C11.4365 18.3484 11.1939 18.3793 10.9103 18.3793H9.08008V14.3664H10.7841C11.32 14.3664 11.7197 14.4474 11.9849 14.6099C12.2497 14.7723 12.3825 15.015 12.3825 15.3374C12.385 15.5078 12.329 15.6738 12.2238 15.8077C12.1771 15.8684 12.1225 15.9225 12.0614 15.9685C11.9026 16.0888 11.7182 16.1707 11.5226 16.2079V16.2191C11.6796 16.2375 11.8191 16.2776 11.9411 16.3378C12.0634 16.3987 12.1666 16.4714 12.2501 16.5562C12.3345 16.641 12.3984 16.7349 12.4423 16.8373C12.4861 16.94 12.5078 17.0436 12.5078 17.148L12.5083 17.1484ZM11.0978 15.5475C11.0978 15.4147 11.0456 15.3199 10.9412 15.2618C10.8368 15.2042 10.6939 15.175 10.5131 15.175H10.2892V15.9335H10.6388C10.7081 15.9335 10.7708 15.9238 10.828 15.9042C10.8848 15.8846 10.9332 15.8574 10.9733 15.8232C11.0129 15.7895 11.0444 15.7474 11.0656 15.7C11.0872 15.6521 11.0981 15.6001 11.0978 15.5475ZM11.2239 17.1426C11.2251 17.0594 11.1989 16.9781 11.1493 16.9113C11.0997 16.8445 11.0295 16.7959 10.9495 16.773C10.8899 16.7537 10.8276 16.7443 10.7649 16.745H10.2888V17.5648H10.6923C10.7704 17.5648 10.8426 17.5557 10.9078 17.5369C10.9729 17.5185 11.0289 17.4913 11.0757 17.4558C11.1239 17.4195 11.1626 17.3721 11.1884 17.3175C11.2143 17.2629 11.2265 17.2029 11.2239 17.1426ZM14.5235 18.3793V17.9428H14.5122C14.4288 18.0948 14.3079 18.223 14.1609 18.315C14.016 18.4048 13.8423 18.4495 13.6389 18.4495C13.4935 18.4495 13.3666 18.4265 13.2584 18.381C13.1562 18.3393 13.0646 18.2756 12.99 18.1942C12.9155 18.1129 12.8599 18.0161 12.8274 17.9107C12.7913 17.799 12.7733 17.6822 12.7743 17.5648C12.7743 17.4604 12.7881 17.356 12.8161 17.2516C12.8441 17.1472 12.8958 17.0503 12.9714 16.9605C13.0466 16.8711 13.1523 16.7934 13.2876 16.7266C13.4229 16.6606 13.5979 16.6138 13.8122 16.5854L14.5231 16.4935C14.5238 16.4472 14.5119 16.4015 14.4884 16.3616C14.4639 16.3214 14.4308 16.2872 14.3915 16.2613C14.3467 16.2315 14.2971 16.2096 14.2449 16.1966C14.184 16.1811 14.1214 16.1735 14.0586 16.174C13.9634 16.174 13.869 16.1824 13.7746 16.1978C13.6829 16.2131 13.5922 16.2342 13.5031 16.2609C13.4195 16.2859 13.3372 16.3153 13.2567 16.349C13.1842 16.3795 13.1129 16.4126 13.0429 16.4484V15.6733C13.1118 15.6436 13.1945 15.6148 13.2905 15.5864C13.3866 15.5584 13.4881 15.5342 13.5954 15.5137C13.7028 15.4932 13.8105 15.4761 13.9187 15.4636C14.0273 15.4502 14.1288 15.444 14.2236 15.444C14.4851 15.444 14.7039 15.4724 14.8814 15.5292C15.0585 15.586 15.2013 15.6712 15.3095 15.7839C15.4181 15.8967 15.4954 16.0374 15.5417 16.2066C15.5885 16.3753 15.6119 16.5725 15.6119 16.7984V18.3793H14.5235ZM14.1204 17.123C14.0404 17.1331 13.9645 17.1645 13.9007 17.214C13.8732 17.2375 13.8513 17.2669 13.837 17.3002C13.8227 17.3334 13.8162 17.3695 13.818 17.4057C13.818 17.437 13.8231 17.4688 13.8335 17.5005C13.844 17.5339 13.8618 17.5646 13.8854 17.5905C13.9091 17.6163 13.9381 17.6366 13.9705 17.6501C14.0126 17.6671 14.0578 17.6754 14.1033 17.6743C14.1607 17.6748 14.2176 17.6628 14.27 17.6392C14.3212 17.6159 14.3665 17.5815 14.4028 17.5385C14.4404 17.4947 14.4696 17.4421 14.4909 17.3802C14.5126 17.3188 14.5231 17.2508 14.5231 17.176V17.067L14.1204 17.123ZM18.0047 18.3793V16.8151C18.0047 16.7216 17.9976 16.6435 17.9838 16.58C17.9732 16.5247 17.9512 16.4722 17.9191 16.4259C17.8923 16.3886 17.8555 16.3596 17.813 16.3423C17.766 16.3247 17.7161 16.3162 17.666 16.3173C17.6142 16.3156 17.563 16.3281 17.5177 16.3532C17.4769 16.377 17.4423 16.4101 17.4166 16.4497C17.3907 16.4898 17.3711 16.5357 17.3582 16.5871C17.3451 16.6387 17.3385 16.6917 17.3385 16.745V18.3793H16.1465V15.5141H17.3385V15.9614H17.3498C17.3886 15.8946 17.4375 15.8295 17.4951 15.7672C17.5532 15.7046 17.6196 15.6494 17.6956 15.6018C17.8636 15.4965 18.0583 15.4416 18.2565 15.4435C18.3906 15.4435 18.5155 15.4636 18.6299 15.5024C18.7448 15.5417 18.8442 15.6077 18.9281 15.7C19.0117 15.7919 19.0777 15.9142 19.1253 16.0663C19.1729 16.2187 19.1963 16.4067 19.1963 16.6301V18.3793H18.0047ZM21.5811 18.3793L20.943 16.9074H20.9317V18.3793H19.7397V14.1371H20.9317V16.8598H20.943L21.5223 15.5137H22.8655L22.0903 16.8264L22.9101 18.3793H21.5811ZM24.4045 14.7414C24.4045 14.8195 24.3895 14.8935 24.3599 14.9628C24.3305 15.031 24.2866 15.092 24.2312 15.1416C24.1752 15.1917 24.1059 15.2322 24.0224 15.2618C23.931 15.293 23.8349 15.3081 23.7384 15.3065C23.636 15.3065 23.5437 15.2915 23.4615 15.2606C23.3848 15.233 23.3141 15.1912 23.253 15.1374C23.1973 15.0875 23.1528 15.0265 23.1222 14.9583C23.0916 14.8901 23.0757 14.8162 23.0755 14.7414C23.0755 14.6554 23.0922 14.5786 23.1257 14.5105C23.1591 14.4424 23.2054 14.3848 23.2643 14.3371C23.3228 14.2895 23.393 14.2532 23.474 14.2277C23.5554 14.2027 23.6436 14.1901 23.7388 14.1901C23.839 14.1901 23.9309 14.2035 24.0128 14.2306C24.0951 14.2578 24.1648 14.2954 24.2229 14.3438C24.2809 14.3923 24.3274 14.4532 24.3588 14.522C24.3902 14.5908 24.4059 14.6658 24.4045 14.7414ZM23.1424 18.3793V15.5141H24.3348V18.3793H23.1424ZM26.7694 18.3793V16.8151C26.7694 16.7216 26.7622 16.6435 26.7485 16.58C26.738 16.5247 26.7161 16.4722 26.6841 16.4259C26.6573 16.3885 26.6203 16.3595 26.5776 16.3423C26.5307 16.3247 26.4808 16.3162 26.4306 16.3173C26.3789 16.3156 26.3276 16.3281 26.2824 16.3532C26.2417 16.3771 26.2073 16.4101 26.1817 16.4497C26.1554 16.4898 26.1358 16.5357 26.1232 16.5871C26.11 16.6387 26.1032 16.6917 26.1032 16.745V18.3793H24.9112V15.5141H26.1032V15.9614H26.1145C26.1537 15.8946 26.2022 15.8295 26.2602 15.7672C26.3179 15.7046 26.3847 15.6494 26.4603 15.6018C26.6283 15.4965 26.8229 15.4416 27.0212 15.4435C27.1557 15.4435 27.2802 15.4636 27.395 15.5024C27.5095 15.5417 27.6089 15.6077 27.6928 15.7C27.7768 15.7919 27.8427 15.9142 27.8899 16.0663C27.9376 16.2187 27.9614 16.4067 27.9614 16.6301V18.3793H26.7694ZM31.6109 17.9792C31.6109 18.132 31.5959 18.2816 31.5658 18.4269C31.5368 18.57 31.4883 18.7084 31.4217 18.8383C31.2801 19.1133 31.0553 19.3366 30.7793 19.4765C30.6132 19.5602 30.4368 19.6218 30.2547 19.6598C30.0315 19.7061 29.804 19.7281 29.576 19.7254C29.4017 19.7255 29.2277 19.7115 29.0556 19.6836C28.984 19.6719 28.9129 19.6569 28.8426 19.6385C28.7796 19.6218 28.7299 19.6051 28.6948 19.5884V18.6537C28.8061 18.7207 28.925 18.7743 29.049 18.8132C29.1241 18.8375 29.2043 18.8579 29.2895 18.8746C29.3743 18.8913 29.4587 18.8997 29.5426 18.8997C29.688 18.8997 29.8154 18.8813 29.9248 18.8441C30.0334 18.8066 30.1253 18.7556 30.2004 18.6913C30.2748 18.627 30.3308 18.5526 30.3683 18.4674C30.4055 18.3826 30.4243 18.292 30.4243 18.1947V18.0184H30.413C30.3324 18.1369 30.2262 18.2358 30.1023 18.3079C29.9432 18.4024 29.7611 18.4513 29.576 18.449C29.3898 18.449 29.2223 18.4156 29.074 18.3488C28.9275 18.2831 28.7982 18.1845 28.696 18.0606C28.5874 17.9258 28.507 17.7706 28.4596 17.6041C28.4033 17.4087 28.376 17.206 28.3786 17.0027C28.3786 16.7433 28.4149 16.5161 28.4876 16.321C28.5603 16.126 28.6568 15.9639 28.7771 15.834C28.8978 15.7046 29.036 15.6068 29.1914 15.5417C29.3441 15.4771 29.5083 15.4438 29.6742 15.444C29.7749 15.444 29.8646 15.4544 29.9428 15.4761C30.0213 15.4974 30.0902 15.5254 30.1499 15.5596C30.2096 15.5943 30.261 15.6336 30.3036 15.6774C30.3466 15.7213 30.383 15.7656 30.413 15.8102H30.4243V15.5137H31.6105L31.6109 17.9792ZM30.4439 16.8653C30.4439 16.8055 30.4373 16.7437 30.4243 16.6794C30.4121 16.6173 30.3893 16.5577 30.3571 16.5031C30.3252 16.4497 30.2817 16.4041 30.2297 16.3699C30.1697 16.3326 30.0998 16.3141 30.0292 16.3169C29.964 16.3159 29.8997 16.3328 29.8433 16.3657C29.7867 16.4 29.7388 16.4471 29.7034 16.5031C29.6654 16.5616 29.6366 16.6314 29.617 16.7116C29.5973 16.7918 29.5877 16.8795 29.5877 16.9747C29.5877 17.1593 29.6212 17.3059 29.688 17.4141C29.7552 17.5222 29.8617 17.5761 30.0071 17.5761C30.0781 17.5761 30.1407 17.5607 30.1963 17.5302C30.2517 17.499 30.2987 17.4549 30.3333 17.4015C30.3696 17.3464 30.3972 17.2817 30.416 17.2069C30.4352 17.1272 30.4446 17.0454 30.4439 16.9634V16.8653Z" fill="#265697"/>
</svg>
