<svg width="40" height="25" viewBox="0 0 40 25" fill="none" xmlns="http://www.w3.org/2000/svg">
<g clip-path="url(#clip0_1178_102)">
<path d="M36.8482 7.74221L38.9911 11.9989L34.4863 16.2576L36.8482 7.74221Z" fill="#008C44"/>
<path d="M35.365 7.74221L37.5047 11.9989L33.0029 16.2576L35.365 7.74221Z" fill="#F47920"/>
<path d="M1.00879 14.7088L3.14534 7.00832H6.56113C7.62865 7.00832 8.34177 7.17739 8.70458 7.52578C9.06477 7.87137 9.13416 8.43548 8.91704 9.22837C8.78572 9.69544 8.58613 10.0875 8.31192 10.3973C8.03996 10.7076 7.68126 10.953 7.23955 11.1334C7.61429 11.2236 7.85268 11.4025 7.95956 11.6708C8.06589 11.9392 8.05358 12.3305 7.92449 12.8435L7.66465 13.9191L7.66391 13.9482C7.58892 14.2494 7.61112 14.4106 7.7333 14.4237L7.65458 14.7088H5.34381C5.35165 14.5276 5.36601 14.3656 5.38131 14.2296C5.39809 14.0904 5.4188 13.9825 5.43932 13.9084L5.65476 13.1394C5.76332 12.7395 5.77004 12.4606 5.66931 12.2999C5.56765 12.1349 5.34008 12.0538 4.98082 12.0538H4.00973L3.26919 14.7088H1.00879ZM4.49024 10.3185H5.53035C5.89483 10.3185 6.16381 10.2665 6.32964 10.1588C6.49621 10.0502 6.61988 9.86675 6.69245 9.60139C6.76762 9.33156 6.74915 9.14346 6.64133 9.03654C6.53371 8.92793 6.2761 8.87512 5.87114 8.87512H4.89072L4.49024 10.3185Z" fill="#1B3281"/>
<path d="M15.2591 9.02642L13.684 14.7087H11.77L12.0052 13.8763C11.6684 14.2073 11.3236 14.4587 10.9761 14.6194C10.6314 14.7828 10.2677 14.8633 9.88473 14.8633C9.56818 14.8633 9.2964 14.8058 9.0776 14.6918C8.85619 14.5781 8.69129 14.4053 8.5803 14.1775C8.48182 13.978 8.43891 13.7317 8.4557 13.4374C8.47342 13.1478 8.57564 12.6593 8.76516 11.9752L9.58143 9.02642H11.6751L10.8605 11.9613C10.7415 12.3909 10.7131 12.6928 10.7711 12.8572C10.8316 13.0231 10.9929 13.1088 11.2548 13.1088C11.5186 13.1088 11.7404 13.0132 11.9235 12.8182C12.1093 12.6249 12.2528 12.3366 12.3606 11.953L13.1685 9.02642H15.2591Z" fill="#1B3281"/>
<path d="M14.499 14.7088L16.6333 7.00832H19.5694C20.2172 7.00832 20.7186 7.04658 21.0762 7.13055C21.433 7.21098 21.7128 7.3416 21.9208 7.52578C22.1814 7.76669 22.3411 8.06488 22.4067 8.42261C22.4685 8.78033 22.4319 9.19702 22.2967 9.6863C22.0575 10.5471 21.6384 11.2068 21.0411 11.6677C20.442 12.1226 19.7007 12.3512 18.816 12.3512H17.442L16.7893 14.7088H14.499ZM17.9622 10.4706H18.7005C19.1778 10.4706 19.5134 10.4116 19.71 10.2978C19.9003 10.1825 20.0355 9.97759 20.118 9.6863C20.2004 9.39109 20.1791 9.1847 20.0545 9.06938C19.9346 8.95462 19.6281 8.89658 19.1377 8.89658H18.4009L17.9622 10.4706Z" fill="#1B3281"/>
<path d="M24.7594 14.7088L24.7807 14.1691C24.443 14.422 24.1011 14.613 23.7574 14.7325C23.4151 14.8541 23.0506 14.9159 22.6602 14.9159C22.0672 14.9159 21.6536 14.7547 21.4145 14.4427C21.1784 14.1301 21.1396 13.6813 21.3007 13.1088C21.455 12.5438 21.7294 12.1278 22.1252 11.8619C22.5188 11.5928 23.1761 11.4003 24.0983 11.2771C24.2153 11.2581 24.372 11.2428 24.5682 11.2191C25.25 11.1401 25.6328 10.9584 25.7152 10.6619C25.7581 10.4995 25.732 10.3797 25.6313 10.3062C25.5341 10.2299 25.3524 10.1924 25.0901 10.1924C24.8724 10.1924 24.6973 10.2375 24.5537 10.3314C24.4102 10.4262 24.3031 10.5646 24.2306 10.7595H22.1894C22.3737 10.1198 22.7503 9.63646 23.3156 9.31326C23.879 8.98447 24.6217 8.82622 25.5417 8.82622C25.9743 8.82622 26.3617 8.86672 26.7042 8.95461C27.0472 9.03877 27.2979 9.15875 27.4606 9.30393C27.6607 9.48513 27.7792 9.6917 27.813 9.9201C27.8519 10.148 27.8092 10.4745 27.6898 10.9018L26.8118 14.0698C26.7837 14.1736 26.7783 14.2661 26.7935 14.3503C26.8118 14.4305 26.8469 14.4992 26.9088 14.5483L26.8616 14.7088H24.7594ZM25.2683 12.1715C25.0459 12.2609 24.757 12.3465 24.3979 12.4406C23.834 12.5919 23.5167 12.7938 23.4481 13.0437C23.4005 13.2044 23.4197 13.3281 23.4983 13.4221C23.5757 13.5115 23.7102 13.5567 23.8997 13.5567C24.2472 13.5567 24.5262 13.4688 24.7342 13.2952C24.9428 13.1195 25.0987 12.8435 25.2078 12.4628C25.2269 12.3818 25.2436 12.3236 25.2545 12.2801L25.2683 12.1715Z" fill="#1B3281"/>
<path d="M26.8779 16.9479L27.3426 15.266H27.9417C28.1419 15.266 28.2993 15.2264 28.4109 15.1544C28.5241 15.0796 28.6011 14.9534 28.6455 14.7836C28.6677 14.7088 28.6813 14.63 28.6907 14.5406C28.6966 14.4458 28.6966 14.3456 28.6907 14.2296L28.3709 9.02645H30.4901L30.4573 12.4742L32.3073 9.02645H34.2781L31.0074 14.6813C30.6362 15.3134 30.3665 15.7476 30.1952 15.9846C30.0262 16.2186 29.8658 16.4005 29.7101 16.5237C29.5082 16.6941 29.2829 16.8148 29.0397 16.8852C28.7959 16.957 28.4247 16.9928 27.9257 16.9928C27.7821 16.9928 27.6168 16.99 27.4381 16.9807C27.2607 16.9738 27.0714 16.9632 26.8779 16.9479Z" fill="#1B3281"/>
</g>
<defs>
<clipPath id="clip0_1178_102">
<rect width="38" height="10" fill="white" transform="translate(1 7)"/>
</clipPath>
</defs>
</svg>
