<svg width="40" height="25" viewBox="0 0 40 25" fill="none" xmlns="http://www.w3.org/2000/svg">
<g clip-path="url(#clip0_1178_143)">
<mask id="mask0_1178_143" style="mask-type:luminance" maskUnits="userSpaceOnUse" x="-3" y="1" width="45" height="23">
<path d="M-2.09668 1.76005H41.0993V23.2397H-2.09668V1.76005Z" fill="white"/>
</mask>
<g mask="url(#mask0_1178_143)">
<path d="M1.30055 17.167H1.57753L1.32015 18.2361C1.28195 18.3947 1.28915 18.5142 1.34195 18.5938C1.39454 18.6736 1.49243 18.7134 1.63552 18.7134C1.77771 18.7134 1.8943 18.6736 1.98539 18.5938C2.07658 18.5142 2.14127 18.3947 2.17947 18.2361L2.43675 17.167H2.71732L2.45364 18.2626C2.39635 18.5006 2.29426 18.6788 2.14807 18.797C2.00179 18.9153 1.81 18.9744 1.57273 18.9744C1.33525 18.9744 1.17236 18.9154 1.08367 18.7976C0.99488 18.6798 0.979382 18.5014 1.03688 18.2626L1.30055 17.167Z" fill="#696A6A"/>
<path d="M2.67969 18.9276L3.12025 17.0973L3.95737 18.1736C3.97977 18.2039 4.00236 18.2364 4.02466 18.2709C4.04696 18.3054 4.06976 18.3442 4.09315 18.3876L4.38703 17.167H4.6463L4.20604 18.9959L3.35132 17.9004C3.32843 17.8709 3.30713 17.8397 3.28723 17.8067C3.26713 17.7738 3.24903 17.7393 3.23244 17.7033L2.93776 18.9276H2.67969Z" fill="#696A6A"/>
<path d="M4.62402 18.9276L5.04778 17.167H5.32816L4.9045 18.9276H4.62402Z" fill="#696A6A"/>
<path d="M5.30762 18.9276L5.73138 17.167H6.69429L6.63579 17.4099H5.95336L5.84767 17.8488H6.5301L6.46971 18.1001H5.78717L5.58809 18.9276H5.30762Z" fill="#696A6A"/>
<path d="M6.5791 18.9276L7.00286 17.167H7.28324L6.85958 18.9276H6.5791Z" fill="#696A6A"/>
<path d="M7.2627 18.9276L7.68646 17.167H8.64937L8.59087 17.4099H7.90843L7.80214 17.8512H8.48458L8.42419 18.1026H7.74175L7.60476 18.6714H8.2872L8.22561 18.9276H7.2627Z" fill="#696A6A"/>
<path d="M8.89052 18.6689H9.1263C9.25589 18.6689 9.35528 18.6601 9.42437 18.6425C9.49346 18.6249 9.55686 18.5952 9.61495 18.5535C9.69384 18.4967 9.75974 18.4259 9.81273 18.3413C9.86563 18.2568 9.90572 18.1582 9.93272 18.0459C9.95962 17.9337 9.96702 17.8354 9.95482 17.751C9.94252 17.6663 9.91072 17.5956 9.85923 17.5386C9.82053 17.497 9.76944 17.4672 9.70564 17.4495C9.64175 17.432 9.53776 17.4231 9.39317 17.4231H9.29178H9.19039L8.89052 18.6689ZM8.54785 18.9276L8.97161 17.167H9.34988C9.59585 17.167 9.76584 17.1795 9.86003 17.2047C9.95402 17.2301 10.0317 17.2725 10.0928 17.3317C10.1739 17.4095 10.2255 17.5093 10.2477 17.6311C10.2698 17.753 10.262 17.8921 10.2244 18.0484C10.1868 18.2047 10.1277 18.3433 10.0471 18.4639C9.96672 18.5846 9.86703 18.6842 9.74844 18.7627C9.65875 18.8221 9.56256 18.8644 9.46037 18.8897C9.35788 18.9149 9.20509 18.9276 9.00151 18.9276H8.92602H8.54785Z" fill="#696A6A"/>
<path d="M11.5896 17.903H11.6615C11.817 17.903 11.9249 17.8856 11.9851 17.8512C12.0454 17.8168 12.0859 17.7558 12.1069 17.6684C12.1295 17.5747 12.1178 17.5084 12.0716 17.47C12.0254 17.4316 11.9282 17.4122 11.7797 17.4122H11.7077L11.5896 17.903ZM11.5155 18.1373L11.3253 18.9276H11.0625L11.4864 17.167H11.9106C12.0363 17.167 12.1272 17.174 12.1832 17.188C12.239 17.2019 12.2851 17.2251 12.3215 17.2572C12.3658 17.2981 12.3949 17.3532 12.4089 17.4225C12.4228 17.4919 12.4198 17.5683 12.3998 17.6515C12.3796 17.735 12.3458 17.8119 12.2982 17.8825C12.2506 17.953 12.1948 18.0084 12.131 18.0484C12.0792 18.0805 12.0221 18.1034 11.9595 18.1169C11.8968 18.1306 11.8027 18.1373 11.677 18.1373H11.6217H11.5155Z" fill="#696A6A"/>
<path d="M12.7466 18.2361H13.2274L13.1471 17.8344C13.1433 17.8088 13.1397 17.7794 13.1366 17.7461C13.1337 17.7128 13.1317 17.6757 13.1304 17.6348C13.1118 17.6733 13.0931 17.7092 13.0744 17.7425C13.0558 17.7757 13.0377 17.8063 13.0199 17.8344L12.7466 18.2361ZM13.3557 18.9276L13.269 18.4742H12.5854L12.2759 18.9276H11.9814L13.2574 17.0973L13.6515 18.9276H13.3557Z" fill="#696A6A"/>
<path d="M14.0529 18.9276L14.2467 18.1218L13.8955 17.167H14.1902L14.4082 17.7647C14.4132 17.78 14.4192 17.8 14.4261 17.8248C14.4331 17.8497 14.4399 17.8764 14.4463 17.9054C14.4639 17.8773 14.482 17.8507 14.5001 17.8259C14.5181 17.8011 14.5364 17.7783 14.5549 17.7574L15.0682 17.167H15.3488L14.5248 18.1218L14.331 18.9276H14.0529Z" fill="#696A6A"/>
<path d="M16.729 18.058C16.7291 18.0444 16.7331 18.0068 16.7409 17.9451C16.7469 17.8937 16.7516 17.8512 16.755 17.8175C16.7383 17.8576 16.7186 17.8978 16.696 17.9378C16.6733 17.9779 16.6473 18.0187 16.6176 18.0605L15.9404 18.9986L15.7194 18.0413C15.71 18.0019 15.7028 17.9638 15.698 17.9271C15.6932 17.8902 15.6899 17.8537 15.6883 17.8175C15.6787 17.8545 15.6665 17.893 15.6516 17.9336C15.6367 17.9741 15.6189 18.0165 15.598 18.0605L15.2043 18.9275H14.9463L15.7957 17.0923L16.0375 18.2036C16.041 18.2212 16.0461 18.2505 16.0523 18.2914C16.0585 18.3323 16.0658 18.3828 16.0743 18.4429C16.1029 18.3923 16.1441 18.3283 16.1983 18.2505C16.2127 18.2297 16.2237 18.2136 16.2311 18.2024L16.9957 17.0923L16.9712 18.9275H16.7106L16.729 18.058Z" fill="#696A6A"/>
<path d="M17.1953 18.9276L17.6192 17.167H18.5821L18.5236 17.4099H17.8411L17.7349 17.8512H18.4173L18.3569 18.1026H17.6744L17.5375 18.6714H18.2199L18.1581 18.9276H17.1953Z" fill="#696A6A"/>
<path d="M18.4805 18.9276L18.921 17.0973L19.7581 18.1736C19.7805 18.2039 19.8031 18.2364 19.8254 18.2709C19.8477 18.3054 19.8705 18.3442 19.8939 18.3876L20.1878 17.167H20.4472L20.0068 18.9959L19.1521 17.9004C19.1292 17.8709 19.1079 17.8397 19.088 17.8067C19.0679 17.7738 19.0498 17.7393 19.0332 17.7033L18.7385 18.9276H18.4805Z" fill="#696A6A"/>
<path d="M21.3416 17.4099L20.9763 18.9276H20.6958L21.061 17.4099H20.6025L20.661 17.167H21.8561L21.7977 17.4099H21.3416Z" fill="#696A6A"/>
<path d="M21.6329 18.5751L21.8823 18.4694C21.8848 18.5479 21.9091 18.6079 21.9557 18.6491C22.0023 18.6905 22.0696 18.7111 22.1578 18.7111C22.241 18.7111 22.313 18.6874 22.3734 18.6401C22.4339 18.5928 22.4738 18.5295 22.4929 18.4501C22.5178 18.3466 22.4557 18.2544 22.3072 18.1736C22.2864 18.1616 22.2704 18.1527 22.2594 18.147C22.0919 18.0525 21.9857 17.9669 21.9409 17.8903C21.8962 17.8137 21.8871 17.7201 21.9136 17.6096C21.9481 17.4661 22.0239 17.3498 22.1408 17.2608C22.2577 17.1718 22.3935 17.1273 22.5484 17.1273C22.6757 17.1273 22.7762 17.1523 22.8497 17.2024C22.9233 17.2527 22.9652 17.3246 22.9756 17.4183L22.7288 17.5338C22.7074 17.4785 22.6792 17.438 22.6442 17.4123C22.6091 17.3866 22.5647 17.3738 22.5114 17.3738C22.436 17.3738 22.3712 17.394 22.3171 17.4338C22.2633 17.474 22.228 17.5277 22.2117 17.5951C22.1863 17.7009 22.26 17.7995 22.4329 17.8909C22.4462 17.898 22.4566 17.9038 22.4641 17.9078C22.6154 17.9878 22.7138 18.0663 22.7589 18.1429C22.8041 18.2195 22.813 18.3151 22.7853 18.4297C22.7452 18.5965 22.6619 18.729 22.5353 18.8271C22.4087 18.9253 22.2577 18.9744 22.0826 18.9744C21.9355 18.9744 21.8235 18.94 21.7463 18.871C21.6689 18.8021 21.6311 18.7035 21.6329 18.5751Z" fill="#696A6A"/>
<path d="M23.7051 18.9276L24.1288 17.167H24.4093L23.9856 18.9276H23.7051Z" fill="#696A6A"/>
<path d="M24.3887 18.9276L24.8292 17.0973L25.6664 18.1736C25.6888 18.2039 25.7113 18.2364 25.7336 18.2709C25.7559 18.3054 25.7787 18.3442 25.8021 18.3876L26.096 17.167H26.3553L25.915 18.9959L25.0603 17.9004C25.0374 17.8709 25.016 17.8397 24.9961 17.8067C24.9761 17.7738 24.9579 17.7393 24.9413 17.7033L24.6467 18.9276H24.3887Z" fill="#696A6A"/>
<path d="M27.2507 17.4099L26.8854 18.9276H26.605L26.9702 17.4099H26.5117L26.5702 17.167H27.7653L27.7069 17.4099H27.2507Z" fill="#696A6A"/>
<path d="M27.5557 18.9276L27.9794 17.167H28.9423L28.8839 17.4099H28.2015L28.0952 17.8512H28.7776L28.7172 18.1026H28.0347L27.8978 18.6714H28.5803L28.5186 18.9276H27.5557Z" fill="#696A6A"/>
<path d="M29.3645 17.9173H29.4153C29.5637 17.9173 29.6665 17.8998 29.7237 17.8645C29.7809 17.8292 29.8205 17.7667 29.8419 17.6768C29.8653 17.5799 29.8557 17.5115 29.8128 17.4719C29.7703 17.432 29.6782 17.4122 29.5369 17.4122H29.4861L29.3645 17.9173ZM29.2933 18.1397L29.1036 18.9275H28.8408L29.2647 17.167H29.6559C29.7706 17.167 29.8578 17.1746 29.9173 17.1899C29.9769 17.2051 30.0249 17.2302 30.0612 17.2656C30.1044 17.308 30.1324 17.3631 30.1454 17.4304C30.1581 17.4976 30.1548 17.5714 30.1356 17.6515C30.1017 17.7926 30.0417 17.9031 29.9557 17.9829C29.8697 18.0626 29.7595 18.1106 29.6252 18.1265L30.0266 18.9275H29.7094L29.3251 18.1397H29.2933Z" fill="#696A6A"/>
<path d="M30.1924 18.9276L30.6161 17.167H31.5791L31.5207 17.4099H30.8381L30.7324 17.8488H31.415L31.3545 18.1001H30.672L30.4729 18.9276H30.1924Z" fill="#696A6A"/>
<path d="M31.9048 18.2361H32.3857L32.3054 17.8344C32.3015 17.8088 32.298 17.7794 32.2949 17.7461C32.292 17.7128 32.29 17.6757 32.2887 17.6348C32.27 17.6733 32.2513 17.7092 32.2327 17.7425C32.2141 17.7757 32.1959 17.8063 32.1782 17.8344L31.9048 18.2361ZM32.514 18.9276L32.4273 18.4742H31.7437L31.4342 18.9276H31.1396L32.4156 17.0973L32.8098 18.9276H32.514Z" fill="#696A6A"/>
<path d="M34.6358 17.5951C34.5731 17.5262 34.5017 17.4745 34.4215 17.4399C34.3415 17.4056 34.2527 17.3882 34.1552 17.3882C33.9668 17.3882 33.7984 17.45 33.6505 17.5734C33.5024 17.6969 33.4048 17.8568 33.3575 18.0533C33.3118 18.2433 33.3317 18.4 33.4171 18.5234C33.5025 18.6469 33.6329 18.7087 33.808 18.7087C33.9103 18.7087 34.0119 18.6902 34.113 18.6533C34.2142 18.6165 34.3163 18.5608 34.419 18.4861L34.3411 18.8097C34.2524 18.865 34.1603 18.9063 34.065 18.9335C33.9697 18.9607 33.8702 18.9743 33.7665 18.9743C33.6345 18.9743 33.5177 18.9524 33.4164 18.9082C33.315 18.8642 33.2321 18.7993 33.168 18.7134C33.1042 18.6293 33.0633 18.5301 33.0458 18.4158C33.028 18.3016 33.0347 18.1799 33.0657 18.0507C33.0968 17.9217 33.1487 17.8005 33.2212 17.6871C33.2936 17.5736 33.3831 17.474 33.4893 17.3882C33.5959 17.3016 33.7099 17.2362 33.8313 17.1915C33.9528 17.1472 34.078 17.1248 34.2069 17.1248C34.3083 17.1248 34.4013 17.1399 34.486 17.1701C34.5707 17.2 34.6489 17.2454 34.7208 17.3066L34.6358 17.5951Z" fill="#696A6A"/>
<path d="M34.6621 18.9276L35.0859 17.167H36.0488L35.9903 17.4099H35.3079L35.2017 17.8512H35.8841L35.8236 18.1026H35.1412L35.0043 18.6714H35.6867L35.625 18.9276H34.6621Z" fill="#696A6A"/>
<path d="M29.5463 15.6328H27.6182L30.2997 6.00128H32.2279L29.5463 15.6328Z" fill="#66686C"/>
<path d="M28.546 6.30577C28.4123 6.1225 28.2061 6.03002 27.9261 6.03002H17.3234L16.7983 7.91645H18.7275V7.91536H26.4437L25.8823 9.93126H18.166L18.1667 9.92709H16.2382L14.6377 15.6736H16.5671L17.6412 11.8166H26.315C26.5859 11.8166 26.8409 11.7247 27.0806 11.5409C27.3199 11.357 27.4774 11.1301 27.5529 10.8593L28.6269 7.00148C28.7053 6.72154 28.6782 6.48925 28.546 6.30577Z" fill="#66686C"/>
<path d="M13.5138 15.0316C13.4073 15.413 13.0581 15.6768 12.6601 15.6768H2.71189C2.44082 15.6768 2.23934 15.5849 2.10685 15.4013C1.97446 15.2176 1.94606 14.9902 2.02176 14.7195L4.44913 6.02944H6.37905L4.21095 13.791H11.9308L14.0989 6.02944H16.0284L13.5138 15.0316Z" fill="#66686C"/>
<path d="M35.5587 6.0193L37.9999 10.8476L32.8682 15.6745L35.5587 6.0193Z" fill="#27803B"/>
<path d="M33.8468 6.0193L36.2862 10.8476L31.1523 15.6745L33.8468 6.0193Z" fill="#E9661C"/>
</g>
</g>
<defs>
<clipPath id="clip0_1178_143">
<rect width="37" height="13" fill="white" transform="translate(1 6)"/>
</clipPath>
</defs>
</svg>
