<svg width="40" height="25" viewBox="0 0 40 25" fill="none" xmlns="http://www.w3.org/2000/svg">
<g clip-path="url(#clip0_1178_103)">
<path d="M18.1663 17.8413H15.3311L17.1044 7.19301H19.9395L18.1663 17.8413Z" fill="#00579F"/>
<path d="M28.4444 7.45332C27.8852 7.23787 26.9982 6.99998 25.9014 6.99998C23.1015 6.99998 21.1299 8.44989 21.1178 10.5228C21.0945 12.0522 22.5294 12.9017 23.6026 13.4116C24.6995 13.9327 25.0724 14.2728 25.0724 14.7373C25.0613 15.4507 24.186 15.7795 23.3697 15.7795C22.2378 15.7795 21.6313 15.61 20.7095 15.2131L20.3362 15.043L19.9395 17.4333C20.6044 17.7275 21.8296 17.9885 23.1015 18C26.0765 18 28.0132 16.5725 28.0362 14.3635C28.0475 13.1513 27.2898 12.2225 25.6563 11.4635C24.6647 10.9763 24.0574 10.6478 24.0574 10.1493C24.069 9.69608 24.571 9.2319 25.6904 9.2319C26.6121 9.20917 27.2894 9.42432 27.8024 9.63962L28.0588 9.7527L28.4444 7.45332Z" fill="#00579F"/>
<path d="M32.2128 14.069C32.4463 13.4573 33.3447 11.0897 33.3447 11.0897C33.3329 11.1124 33.5777 10.4667 33.7178 10.0702L33.9159 10.9878C33.9159 10.9878 34.4528 13.5366 34.5694 14.069C34.1263 14.069 32.7728 14.069 32.2128 14.069ZM35.7125 7.19301H33.5195C32.8432 7.19301 32.3294 7.38543 32.0376 8.0765L27.8262 17.8412H30.8011C30.8011 17.8412 31.2909 16.5269 31.3962 16.2438C31.7225 16.2438 34.6165 16.2438 35.0364 16.2438C35.1178 16.6177 35.3747 17.8412 35.3747 17.8412H37.9998L35.7125 7.19301Z" fill="#00579F"/>
<path d="M12.9629 7.19301L10.1862 14.4541L9.88281 12.9815C9.36946 11.2823 7.75951 9.43607 5.96289 8.5181L8.50619 17.83H11.5044L15.9609 7.19301H12.9629Z" fill="#00579F"/>
<path d="M7.6083 7.19301H3.04667L3 7.40816C6.55836 8.2918 8.91499 10.4218 9.88323 12.9819L8.89158 8.08809C8.72832 7.40801 8.22661 7.21544 7.6083 7.19301Z" fill="#FAA61A"/>
</g>
<defs>
<clipPath id="clip0_1178_103">
<rect width="35" height="11" fill="white" transform="translate(3 7)"/>
</clipPath>
</defs>
</svg>
